USFL
nRows=259
nColumns=2
inDegrees=yes
endheader
time	tib_ant_r	
3.19355	 63.676550	
3.22681	 63.659366	
3.26008	 63.660389	
3.29335	 63.673982	
3.32661	 63.667626	
3.35988	 63.668691	
3.39315	 63.677929	
3.42641	 63.670731	
3.45968	 63.690220	
3.49294	 63.696840	
3.52621	 63.693129	
3.55948	 63.715411	
3.59274	 63.683947	
3.62601	 63.681465	
3.65927	 63.672522	
3.69254	 63.688613	
3.72581	 63.709148	
3.75907	 63.711679	
3.79234	 63.722891	
3.8256	 63.732673	
3.85887	 63.730506	
3.89214	 63.720222	
3.9254	 63.716262	
3.95867	 63.745471	
3.99194	 63.748435	
4.0252	 63.764853	
4.05847	 63.758686	
4.09173	 63.756275	
4.125	 63.763732	
4.15827	 63.776703	
4.19153	 63.770343	
4.2248	 63.762112	
4.25806	 63.776979	
4.29133	 63.832814	
4.3246	 63.694217	
4.35786	 63.482652	
4.39113	 63.457154	
4.4244	 63.102079	
4.45766	 62.942874	
4.49093	 62.891826	
4.52419	 62.664828	
4.55746	 62.306150	
4.59073	 62.223472	
4.62399	 61.998119	
4.65726	 61.888767	
4.69052	 61.723813	
4.72379	 61.647074	
4.75706	 61.807783	
4.79032	 61.550910	
4.82359	 61.514517	
4.85685	 61.445150	
4.89012	 62.117918	
4.92339	 62.195586	
4.95665	 62.253504	
4.98992	 61.298376	
5.02319	 61.367711	
5.05645	 61.171468	
5.08972	 61.102479	
5.12298	 60.956165	
5.15625	 60.724513	
5.18952	 59.520634	
5.22278	 59.413960	
5.25605	 59.201825	
5.28931	 59.046959	
5.32258	 58.892452	
5.35585	 58.611607	
5.38911	 58.626007	
5.42238	 58.517179	
5.45565	 58.303525	
5.48891	 58.193148	
5.52218	 58.052574	
5.55544	 57.991787	
5.58871	 57.980413	
5.62198	 57.804996	
5.65524	 57.602901	
5.68851	 57.594573	
5.72177	 57.442713	
5.75504	 57.441544	
5.78831	 57.266953	
5.82157	 57.267978	
5.85484	 57.260272	
5.8881	 57.109664	
5.92137	 56.920816	
5.95464	 56.969965	
5.9879	 56.975817	
6.02117	 56.992171	
6.05444	 56.974109	
6.0877	 57.129501	
6.12097	 57.131569	
6.15423	 57.121800	
6.1875	 57.082401	
6.22077	 57.046408	
6.25403	 57.063044	
6.2873	 56.336871	
6.32056	 56.308730	
6.35383	 56.305628	
6.3871	 56.248563	
6.42036	 56.139760	
6.45363	 56.019809	
6.4869	 55.960380	
6.52016	 54.778183	
6.55343	 54.734866	
6.58669	 53.462041	
6.61996	 53.346592	
6.65323	 53.304074	
6.68649	 53.270787	
6.71976	 53.420112	
6.75302	 52.540916	
6.78629	 52.430942	
6.81956	 52.382761	
6.85282	 52.413207	
6.88609	 52.409037	
6.91935	 52.352884	
6.95262	 52.340284	
6.98589	 52.355217	
7.01915	 52.360647	
7.05242	 52.373308	
7.08569	 52.351677	
7.11895	 52.351172	
7.15222	 52.416193	
7.18548	 52.423761	
7.21875	 52.133071	
7.25202	 52.179192	
7.28528	 52.180526	
7.31855	 52.137625	
7.35181	 52.180979	
7.38508	 52.237259	
7.41835	 52.327322	
7.45161	 52.278597	
7.48488	 52.251862	
7.51815	 52.294108	
7.55141	 52.306383	
7.58468	 52.316320	
7.61794	 52.318860	
7.65121	 52.298156	
7.68448	 52.290849	
7.71774	 52.289182	
7.75101	 52.287228	
7.78427	 52.276345	
7.81754	 52.160521	
7.85081	 52.041675	
7.88407	 51.977611	
7.91734	 51.967255	
7.9506	 51.965623	
7.98387	 51.065209	
8.01714	 50.998103	
8.0504	 50.995157	
8.08367	 50.983943	
8.11694	 50.928556	
8.1502	 50.905642	
8.18347	 50.945485	
8.21673	 51.011472	
8.25	 51.002382	
8.28327	 50.963516	
8.31653	 50.957110	
8.3498	 50.983170	
8.38306	 50.985767	
8.41633	 50.961618	
8.4496	 51.045141	
8.48286	 51.133068	
8.51613	 51.111187	
8.5494	 51.189054	
8.58266	 51.226402	
8.61593	 51.218351	
8.64919	 51.187569	
8.68246	 51.178074	
8.71573	 51.205283	
8.74899	 51.241865	
8.78226	 51.258572	
8.81552	 51.292751	
8.84879	 51.305310	
8.88206	 51.304509	
8.91532	 51.318503	
8.94859	 51.328186	
8.98185	 51.394721	
9.01512	 51.447934	
9.04839	 51.470497	
9.08165	 51.445616	
9.11492	 51.408850	
9.14819	 51.363787	
9.18145	 51.412723	
9.21472	 51.432032	
9.24798	 51.459783	
9.28125	 51.446934	
9.31452	 51.434704	
9.34778	 51.429651	
9.38105	 51.411382	
9.41431	 51.368512	
9.44758	 51.423394	
9.48085	 51.480245	
9.51411	 51.541175	
9.54738	 53.233216	
9.58065	 54.872602	
9.61391	 54.847243	
9.64718	 56.282449	
9.68044	 58.136617	
9.71371	 59.309295	
9.74698	 59.292227	
9.78024	 59.416102	
9.81351	 59.266298	
9.84677	 59.438140	
9.88004	 59.420574	
9.91331	 59.593032	
9.94657	 59.556966	
9.97984	 59.562293	
10.0131	 60.765516	
10.0464	 60.816055	
10.0796	 60.623949	
10.1129	 60.466586	
10.1462	 60.512936	
10.1794	 60.363126	
10.2127	 60.340590	
10.246	 60.279061	
10.2792	 60.336350	
10.3125	 60.478161	
10.3458	 60.447791	
10.379	 60.602119	
10.4123	 60.649206	
10.4456	 60.620199	
10.4788	 60.591428	
10.5121	 60.548247	
10.5454	 60.580116	
10.5786	 60.643553	
10.6119	 60.653150	
10.6452	 60.608278	
10.6784	 60.600091	
10.7117	 60.563138	
10.745	 60.664970	
10.7782	 60.738907	
10.8115	 60.667793	
10.8448	 60.618123	
10.878	 60.598282	
10.9113	 60.586047	
10.9446	 60.592947	
10.9778	 60.598118	
11.0111	 60.577686	
11.0444	 60.554423	
11.0776	 60.559797	
11.1109	 60.518770	
11.1442	 60.513919	
11.1774	 60.533764	
11.2107	 60.548038	
11.244	 60.573756	
11.2772	 60.541585	
11.3105	 60.509026	
11.3437	 60.514086	
11.377	 60.519589	
11.4103	 60.537695	
11.4435	 60.569248	
11.4768	 60.537654	
11.5101	 60.535700	
11.5433	 60.540076	
11.5766	 60.534591	
11.6099	 60.533255	
11.6431	 60.514797	
11.6764	 60.502019	
11.7097	 60.505694	
11.7429	 60.478034	
11.7762	 60.478430	
